<?xml version="1.0" encoding="UTF-8" standalone="no"?>
<!DOCTYPE svg PUBLIC "-//W3C//DTD SVG 1.1//EN" "http://www.w3.org/Graphics/SVG/1.1/DTD/svg11.dtd">
<svg width="100%" height="100%" viewBox="0 0 1080 1080" version="1.1" xmlns="http://www.w3.org/2000/svg" xmlns:xlink="http://www.w3.org/1999/xlink" xml:space="preserve" xmlns:serif="http://www.serif.com/" style="fill-rule:evenodd;clip-rule:evenodd;stroke-linejoin:round;stroke-miterlimit:1.77326;">
    <g id="Calque4">
        <path d="M787.106,445.482L624.614,356.3C624.614,356.3 624.613,315.47 622.856,314.389C622.856,314.389 607.945,305.79 601.194,300.499C592.617,293.776 578.988,284.948 571.394,274.053C561.951,260.504 549.767,236.619 544.534,219.208C539.754,203.302 540,169.589 540,169.589C540,169.589 529.972,165.5 525.474,162.547C519.837,158.845 512.216,152.897 506.174,147.38C499.502,141.288 491.242,134.054 485.444,125.995C478.566,116.434 468.342,103.389 464.905,90.014C460.656,73.477 459.95,26.772 459.95,26.772C459.95,26.772 490.779,44.931 504.155,52.932C516.213,60.145 528.143,67.573 540.206,74.78C558.952,85.979 591.244,104.864 616.631,120.128C645.664,137.584 689.788,159.613 714.405,179.52C734.647,195.888 753.239,218.683 764.335,239.569C774.868,259.395 778.511,282.518 780.979,304.833C784.774,339.152 787.106,445.482 787.106,445.482Z" style="fill:rgb(253,188,186);"/>
    </g>
    <path d="M600.426,325.505L919.324,510.476L917.023,881.073L600.777,1057.92L283.063,877.449L283.063,510.476L600.426,325.505Z" style="fill:rgb(250,89,84);"/>
    <path d="M439.191,829.769L558.146,895.31L558.836,985.601L439.393,919.598L439.191,829.769Z" style="fill:rgb(253,188,186);"/>
    <g transform="matrix(1,0,0,1,-0.0340225,-2.6346)">
        <path d="M239.358,497.487C239.358,497.487 226.33,488.244 195.686,462.587C160.514,433.137 163.95,425.832 158.314,402.853C153.753,384.255 156.346,370.76 155.941,351.673C155.941,351.673 151.406,353.367 127.152,332.981C102.742,312.464 94,307.078 81.922,284.147C68.48,258.626 73.238,212.54 73.238,212.54C73.238,212.54 82.252,215.806 116.335,234.231C150.419,252.656 157.7,262.547 244.123,308.265C330.546,353.982 364.907,389.153 384.062,435.158C403.218,481.163 402.717,547.798 403.946,584.951C406.918,674.753 419.009,669.968 423.493,688.336C427.976,706.704 497.64,736.493 493.531,786.706C489.968,830.251 424.238,796.035 416.218,788.819C404.193,778.001 398.42,744.487 398.42,744.487C381.268,679.563 347.516,664.148 322.304,642.514C297.092,620.881 247.981,577.708 242.129,544.904C239.537,530.379 239.265,523.244 239.125,511.501C239.005,501.371 239.424,497.876 239.358,497.487Z" style="fill:rgb(253,188,186);"/>
    </g>
    <g id="Calque1">
        <path id="line" d="M919.324,510.476L601.194,691.715L283.063,510.476L601.194,691.715L601.194,1057.92" style="fill:none;stroke:rgb(253,188,186);stroke-width:4.65px;"/>
    </g>
    <g id="Calque2">
        <path d="M480.043,395.588L799.909,579.416L800.864,684.47L750.58,717.088L752.066,606.622L436.343,421.044L480.043,395.588Z" style="fill:rgb(79,84,84);"/>
        <g transform="matrix(1,0,0,1,0.248154,0.618255)">
            <path d="M540,169.279C575.718,190.385 684.112,254.435 702.59,265.353" style="fill:rgb(250,89,84);"/>
            <path d="M704.091,266.241C703.734,266.845 703.706,266.865 703.024,267.041C702.596,267.151 702.133,266.992 701.711,266.86C701.408,266.765 701.163,266.536 700.89,266.375L620.408,218.818C601.403,207.478 539.801,169.759 539.758,169.689C539.389,169.099 539.548,168.831 540.242,168.869C540.324,168.873 603.081,204.637 622.182,215.814L703.477,263.852C704.082,264.209 704.102,264.237 704.277,264.92C704.452,265.602 704.449,265.636 704.091,266.241Z" style="fill:rgb(79,84,84);"/>
        </g>
        <g transform="matrix(1.0283,0,0,1.02939,-1.14165,-13.1407)">
            <path d="M290.15,431.639C276.623,423.846 264.799,417.008 262.139,415.469L152.95,351.977L153.341,351.291C166.445,358.604 229.149,393.438 291.519,428.616C299.691,433.214 307.749,437.763 315.544,442.182C316.273,442.595 324.403,447.204 324.627,447.39C324.632,447.394 324.637,447.398 324.642,447.403C325.115,447.803 325.293,448.34 325.248,448.855C325.208,449.436 324.89,449.996 324.334,450.293C324.016,450.47 323.632,450.549 323.206,450.476C323.092,450.457 322.866,450.403 322.63,450.27C313.545,445.122 301.165,438 290.15,431.639Z" style="fill:rgb(79,84,84);"/>
        </g>
        <g transform="matrix(1,0,0,1,-1.20296,-6.70636)">
            <path d="M239.965,501.951C240.24,502.084 240.605,501.778 240.879,501.911C241.808,502.36 284.79,525.034 296.774,531.616C298.786,532.722 300.781,533.855 302.785,534.975L346.894,559.618C347.178,559.978 347.617,560.26 347.742,560.701C347.867,561.142 347.642,561.612 347.588,562.067C347.563,562.27 347.438,563.329 345.129,562.778C344.929,562.73 344.771,562.578 344.592,562.478L295.008,534.776C282.886,527.89 240.18,502.655 240.147,502.596C240.039,502.401 240.074,502.146 239.965,501.951Z" style="fill:rgb(79,84,84);"/>
        </g>
        <g transform="matrix(1,0,0,1,2.4926,2.77768)">
            <path d="M620.831,311.916C621.143,312.069 621.562,311.728 621.874,311.881C622.966,312.416 673.723,339.388 687.88,347.205L747.096,380.432C747.414,380.838 747.908,381.155 748.048,381.652C748.188,382.148 747.932,382.677 747.871,383.189C747.843,383.417 747.699,384.618 745.104,383.981C744.869,383.924 744.683,383.745 744.472,383.626L685.888,350.754C671.563,342.587 621.073,312.708 621.034,312.641C620.911,312.422 620.954,312.135 620.831,311.916Z" style="fill:rgb(79,84,84);"/>
        </g>
    </g>
    <g id="Calque3">
    </g>
</svg>
